<mxfile host="app.diagrams.net" agent="Mozilla/5.0 (X11; Linux x86_64; rv:133.0) Gecko/20100101 Firefox/133.0" version="24.9.2">
  <diagram name="Page-1" id="Pc1aNAQ9RasJurjFk5pG">
    <mxGraphModel dx="667" dy="409" grid="1" gridSize="10" guides="1" tooltips="1" connect="1" arrows="1" fold="1" page="1" pageScale="1" pageWidth="850" pageHeight="1100" math="0" shadow="0">
      <root>
        <mxCell id="0" />
        <mxCell id="1" parent="0" />
        <mxCell id="2iSjbsOjDCWiTXiTnKlb-3" value="vlaams-biodiversiteitsportaal" style="rounded=0;whiteSpace=wrap;html=1;verticalAlign=top;" vertex="1" parent="1">
          <mxGeometry x="70" y="59.5" width="190" height="430.5" as="geometry" />
        </mxCell>
        <mxCell id="2iSjbsOjDCWiTXiTnKlb-5" value="branding" style="sketch=0;outlineConnect=0;fontColor=#232F3E;gradientColor=none;fillColor=#232F3D;strokeColor=none;dashed=0;verticalLabelPosition=bottom;verticalAlign=top;align=center;html=1;fontSize=12;fontStyle=0;aspect=fixed;pointerEvents=1;shape=mxgraph.aws4.folder;" vertex="1" parent="1">
          <mxGeometry x="100" y="90" width="78" height="71" as="geometry" />
        </mxCell>
        <mxCell id="2iSjbsOjDCWiTXiTnKlb-6" value="config" style="sketch=0;outlineConnect=0;fontColor=#232F3E;gradientColor=none;fillColor=#232F3D;strokeColor=none;dashed=0;verticalLabelPosition=bottom;verticalAlign=top;align=center;html=1;fontSize=12;fontStyle=0;aspect=fixed;pointerEvents=1;shape=mxgraph.aws4.folder;" vertex="1" parent="1">
          <mxGeometry x="100" y="200" width="78" height="71" as="geometry" />
        </mxCell>
        <mxCell id="2iSjbsOjDCWiTXiTnKlb-7" value="docker" style="sketch=0;outlineConnect=0;fontColor=#232F3E;gradientColor=none;fillColor=#232F3D;strokeColor=none;dashed=0;verticalLabelPosition=bottom;verticalAlign=top;align=center;html=1;fontSize=12;fontStyle=0;aspect=fixed;pointerEvents=1;shape=mxgraph.aws4.folder;" vertex="1" parent="1">
          <mxGeometry x="100" y="360" width="78" height="71" as="geometry" />
        </mxCell>
        <mxCell id="2iSjbsOjDCWiTXiTnKlb-8" value="alerts" style="sketch=0;outlineConnect=0;fontColor=#232F3E;gradientColor=none;fillColor=#232F3D;strokeColor=none;dashed=0;verticalLabelPosition=bottom;verticalAlign=top;align=center;html=1;fontSize=12;fontStyle=0;aspect=fixed;pointerEvents=1;shape=mxgraph.aws4.folder;" vertex="1" parent="1">
          <mxGeometry x="210" y="210" width="21.97" height="20" as="geometry" />
        </mxCell>
        <mxCell id="2iSjbsOjDCWiTXiTnKlb-9" value="bie-hub" style="sketch=0;outlineConnect=0;fontColor=#232F3E;gradientColor=none;fillColor=#232F3D;strokeColor=none;dashed=0;verticalLabelPosition=bottom;verticalAlign=top;align=center;html=1;fontSize=12;fontStyle=0;aspect=fixed;pointerEvents=1;shape=mxgraph.aws4.folder;" vertex="1" parent="1">
          <mxGeometry x="210" y="251" width="21.97" height="20" as="geometry" />
        </mxCell>
        <mxCell id="2iSjbsOjDCWiTXiTnKlb-10" value="..." style="sketch=0;outlineConnect=0;fontColor=#232F3E;gradientColor=none;fillColor=#232F3D;strokeColor=none;dashed=0;verticalLabelPosition=bottom;verticalAlign=top;align=center;html=1;fontSize=12;fontStyle=0;aspect=fixed;pointerEvents=1;shape=mxgraph.aws4.folder;" vertex="1" parent="1">
          <mxGeometry x="210" y="289.5" width="21.97" height="20" as="geometry" />
        </mxCell>
        <mxCell id="2iSjbsOjDCWiTXiTnKlb-11" value="alerts" style="sketch=0;outlineConnect=0;fontColor=#232F3E;gradientColor=none;fillColor=#232F3D;strokeColor=none;dashed=0;verticalLabelPosition=bottom;verticalAlign=top;align=center;html=1;fontSize=12;fontStyle=0;aspect=fixed;pointerEvents=1;shape=mxgraph.aws4.folder;" vertex="1" parent="1">
          <mxGeometry x="210" y="360" width="21.97" height="20" as="geometry" />
        </mxCell>
        <mxCell id="2iSjbsOjDCWiTXiTnKlb-12" value="bie-hub" style="sketch=0;outlineConnect=0;fontColor=#232F3E;gradientColor=none;fillColor=#232F3D;strokeColor=none;dashed=0;verticalLabelPosition=bottom;verticalAlign=top;align=center;html=1;fontSize=12;fontStyle=0;aspect=fixed;pointerEvents=1;shape=mxgraph.aws4.folder;" vertex="1" parent="1">
          <mxGeometry x="210" y="401" width="21.97" height="20" as="geometry" />
        </mxCell>
        <mxCell id="2iSjbsOjDCWiTXiTnKlb-13" value="..." style="sketch=0;outlineConnect=0;fontColor=#232F3E;gradientColor=none;fillColor=#232F3D;strokeColor=none;dashed=0;verticalLabelPosition=bottom;verticalAlign=top;align=center;html=1;fontSize=12;fontStyle=0;aspect=fixed;pointerEvents=1;shape=mxgraph.aws4.folder;" vertex="1" parent="1">
          <mxGeometry x="210" y="439.5" width="21.97" height="20" as="geometry" />
        </mxCell>
        <mxCell id="2iSjbsOjDCWiTXiTnKlb-14" value="Build and &lt;br&gt;release branding" style="shape=parallelogram;perimeter=parallelogramPerimeter;whiteSpace=wrap;html=1;fixedSize=1;" vertex="1" parent="1">
          <mxGeometry x="305" y="101" width="120" height="60" as="geometry" />
        </mxCell>
        <mxCell id="2iSjbsOjDCWiTXiTnKlb-15" value="vlaams-biodiversiteitsportaal" style="rounded=0;whiteSpace=wrap;html=1;verticalAlign=top;" vertex="1" parent="1">
          <mxGeometry x="630" y="45.75" width="190" height="430.5" as="geometry" />
        </mxCell>
        <mxCell id="2iSjbsOjDCWiTXiTnKlb-16" value="Update &lt;br&gt;versions" style="shape=parallelogram;perimeter=parallelogramPerimeter;whiteSpace=wrap;html=1;fixedSize=1;" vertex="1" parent="1">
          <mxGeometry x="480" y="231" width="120" height="60" as="geometry" />
        </mxCell>
        <mxCell id="2iSjbsOjDCWiTXiTnKlb-18" value="&lt;div align=&quot;left&quot;&gt;{&lt;br&gt;&amp;nbsp; &quot;branding&quot;: &quot;0.0.1&quot;,&lt;br&gt;&amp;nbsp; &quot;config&quot;: {&lt;br&gt;&amp;nbsp;&amp;nbsp;&amp;nbsp; &quot;alerts&quot;: &quot;0.0.1&quot;,&lt;br&gt;&amp;nbsp;&amp;nbsp;&amp;nbsp; &quot;apikey&quot;: &quot;0.0.1&quot;,&lt;br&gt;&amp;nbsp;&amp;nbsp;&amp;nbsp; &quot;bie-hub&quot;: &quot;0.0.1&quot;,&lt;br&gt;&amp;nbsp;&amp;nbsp;&amp;nbsp; &quot;bie-index&quot;: &quot;0.0.1&quot;,&lt;br&gt;&amp;nbsp;&amp;nbsp;&amp;nbsp; &quot;biocache-hub&quot;: &quot;0.0.1&quot;,&lt;br&gt;&amp;nbsp;&amp;nbsp;&amp;nbsp; &quot;biocache-service&quot;: &quot;0.0.1&quot;,&lt;br&gt;&amp;nbsp;&amp;nbsp;&amp;nbsp; &quot;collectory&quot;: &quot;0.0.1&quot;,&lt;br&gt;&amp;nbsp;&amp;nbsp;&amp;nbsp; &quot;doi-service&quot;: &quot;0.0.1&quot;,&lt;br&gt;&amp;nbsp;&amp;nbsp;&amp;nbsp; &quot;grafana&quot;: &quot;0.0.1&quot;,&lt;br&gt;&amp;nbsp;&amp;nbsp;&amp;nbsp; &quot;image-service&quot;: &quot;0.0.1&quot;,&lt;br&gt;&amp;nbsp;&amp;nbsp;&amp;nbsp; &quot;logger&quot;: &quot;0.0.1&quot;,&lt;br&gt;&amp;nbsp;&amp;nbsp;&amp;nbsp; &quot;namematching-service&quot;: &quot;0.0.1&quot;,&lt;br&gt;&amp;nbsp;&amp;nbsp;&amp;nbsp; &quot;regions&quot;: &quot;0.0.1&quot;,&lt;br&gt;&amp;nbsp;&amp;nbsp;&amp;nbsp; &quot;solr&quot;: &quot;0.0.1&quot;,&lt;br&gt;&amp;nbsp;&amp;nbsp;&amp;nbsp; &quot;spatial-hub&quot;: &quot;0.0.1&quot;,&lt;br&gt;&amp;nbsp;&amp;nbsp;&amp;nbsp; &quot;spatial-service&quot;: &quot;0.0.1&quot;,&lt;br&gt;&amp;nbsp;&amp;nbsp;&amp;nbsp; &quot;species-list&quot;: &quot;0.0.1&quot;,&lt;br&gt;&amp;nbsp;&amp;nbsp;&amp;nbsp; &quot;userdetails&quot;: &quot;0.0.1&quot;&lt;br&gt;&amp;nbsp; },&lt;br&gt;&amp;nbsp; &quot;docker&quot;: {&lt;br&gt;&amp;nbsp;&amp;nbsp;&amp;nbsp; &quot;alerts&quot;: &quot;0.0.1&quot;,&lt;br&gt;&amp;nbsp;&amp;nbsp;&amp;nbsp; &quot;apikey&quot;: &quot;0.0.1&quot;,&lt;br&gt;&amp;nbsp;&amp;nbsp;&amp;nbsp; &quot;bie-hub&quot;: &quot;0.0.1&quot;,&lt;br&gt;&amp;nbsp;&amp;nbsp;&amp;nbsp; &quot;bie-index&quot;: &quot;0.0.1&quot;,&lt;br&gt;&amp;nbsp;&amp;nbsp;&amp;nbsp; &quot;biocache-hub&quot;: &quot;0.0.1&quot;,&lt;br&gt;&amp;nbsp;&amp;nbsp;&amp;nbsp; &quot;biocache-service&quot;: &quot;0.0.1&quot;,&lt;br&gt;&amp;nbsp;&amp;nbsp;&amp;nbsp; &quot;collectory&quot;: &quot;0.0.1&quot;,&lt;br&gt;&amp;nbsp;&amp;nbsp;&amp;nbsp; &quot;doi-service&quot;: &quot;0.0.1&quot;,&lt;br&gt;&amp;nbsp;&amp;nbsp;&amp;nbsp; &quot;image-service&quot;: &quot;0.0.1&quot;,&lt;br&gt;&amp;nbsp;&amp;nbsp;&amp;nbsp; &quot;pipelines&quot;: &quot;0.0.1&quot;,&lt;br&gt;&amp;nbsp;&amp;nbsp;&amp;nbsp; &quot;logger&quot;: &quot;0.0.1&quot;,&lt;br&gt;&amp;nbsp;&amp;nbsp;&amp;nbsp; &quot;namematching-service&quot;: &quot;0.0.1&quot;,&lt;br&gt;&amp;nbsp;&amp;nbsp;&amp;nbsp; &quot;regions&quot;: &quot;0.0.1&quot;,&lt;br&gt;&amp;nbsp;&amp;nbsp;&amp;nbsp; &quot;spatial-hub&quot;: &quot;0.0.1&quot;,&lt;br&gt;&amp;nbsp;&amp;nbsp;&amp;nbsp; &quot;spatial-service&quot;: &quot;0.0.1&quot;,&lt;br&gt;&amp;nbsp;&amp;nbsp;&amp;nbsp; &quot;species-list&quot;: &quot;0.0.1&quot;,&lt;br&gt;&amp;nbsp;&amp;nbsp;&amp;nbsp; &quot;userdetails&quot;: &quot;0.0.1&quot;&lt;br&gt;&amp;nbsp; }&lt;br&gt;}&lt;br&gt;&lt;/div&gt;&lt;div align=&quot;left&quot;&gt;&lt;br&gt;&lt;/div&gt;&lt;div align=&quot;left&quot;&gt;&lt;br&gt;&lt;/div&gt;" style="whiteSpace=wrap;html=1;shape=mxgraph.basic.document;fontFamily=Courier New;fontSize=6;align=left;" vertex="1" parent="1">
          <mxGeometry x="650" y="129.5" width="150" height="330" as="geometry" />
        </mxCell>
        <mxCell id="2iSjbsOjDCWiTXiTnKlb-20" value="Tag config &lt;br&gt;versions" style="shape=parallelogram;perimeter=parallelogramPerimeter;whiteSpace=wrap;html=1;fixedSize=1;" vertex="1" parent="1">
          <mxGeometry x="305" y="231" width="120" height="60" as="geometry" />
        </mxCell>
        <mxCell id="2iSjbsOjDCWiTXiTnKlb-21" value="Build and &lt;br&gt;release dockers" style="shape=parallelogram;perimeter=parallelogramPerimeter;whiteSpace=wrap;html=1;fixedSize=1;" vertex="1" parent="1">
          <mxGeometry x="300" y="365.5" width="120" height="60" as="geometry" />
        </mxCell>
        <mxCell id="2iSjbsOjDCWiTXiTnKlb-22" value="" style="endArrow=classic;html=1;rounded=0;entryX=0;entryY=0.5;entryDx=0;entryDy=0;" edge="1" parent="1" target="2iSjbsOjDCWiTXiTnKlb-21">
          <mxGeometry width="50" height="50" relative="1" as="geometry">
            <mxPoint x="259" y="395" as="sourcePoint" />
            <mxPoint x="470" y="570" as="targetPoint" />
          </mxGeometry>
        </mxCell>
        <mxCell id="2iSjbsOjDCWiTXiTnKlb-23" value="" style="endArrow=classic;html=1;rounded=0;entryX=0;entryY=0.5;entryDx=0;entryDy=0;" edge="1" parent="1">
          <mxGeometry width="50" height="50" relative="1" as="geometry">
            <mxPoint x="260" y="259.85" as="sourcePoint" />
            <mxPoint x="311" y="259.85" as="targetPoint" />
          </mxGeometry>
        </mxCell>
        <mxCell id="2iSjbsOjDCWiTXiTnKlb-24" value="" style="endArrow=classic;html=1;rounded=0;entryX=0;entryY=0.5;entryDx=0;entryDy=0;" edge="1" parent="1">
          <mxGeometry width="50" height="50" relative="1" as="geometry">
            <mxPoint x="260" y="130.85000000000002" as="sourcePoint" />
            <mxPoint x="311" y="130.85000000000002" as="targetPoint" />
          </mxGeometry>
        </mxCell>
        <mxCell id="2iSjbsOjDCWiTXiTnKlb-25" value="" style="endArrow=classic;html=1;rounded=0;entryX=0;entryY=0.5;entryDx=0;entryDy=0;exitX=1;exitY=0.5;exitDx=0;exitDy=0;" edge="1" parent="1" source="2iSjbsOjDCWiTXiTnKlb-20" target="2iSjbsOjDCWiTXiTnKlb-16">
          <mxGeometry width="50" height="50" relative="1" as="geometry">
            <mxPoint x="429" y="259.85" as="sourcePoint" />
            <mxPoint x="480" y="259.85" as="targetPoint" />
          </mxGeometry>
        </mxCell>
        <mxCell id="2iSjbsOjDCWiTXiTnKlb-26" value="" style="endArrow=classic;html=1;rounded=0;exitX=1;exitY=0.5;exitDx=0;exitDy=0;edgeStyle=orthogonalEdgeStyle;entryX=0;entryY=0.5;entryDx=0;entryDy=0;" edge="1" parent="1" target="2iSjbsOjDCWiTXiTnKlb-16">
          <mxGeometry width="50" height="50" relative="1" as="geometry">
            <mxPoint x="404.9999999999999" y="131" as="sourcePoint" />
            <mxPoint x="470" y="260" as="targetPoint" />
            <Array as="points">
              <mxPoint x="440" y="131" />
              <mxPoint x="440" y="261" />
            </Array>
          </mxGeometry>
        </mxCell>
        <mxCell id="2iSjbsOjDCWiTXiTnKlb-27" value="" style="endArrow=classic;html=1;rounded=0;exitX=0.902;exitY=0.528;exitDx=0;exitDy=0;edgeStyle=orthogonalEdgeStyle;entryX=0;entryY=0.5;entryDx=0;entryDy=0;exitPerimeter=0;" edge="1" parent="1" source="2iSjbsOjDCWiTXiTnKlb-21" target="2iSjbsOjDCWiTXiTnKlb-16">
          <mxGeometry width="50" height="50" relative="1" as="geometry">
            <mxPoint x="414.9999999999999" y="141" as="sourcePoint" />
            <mxPoint x="500" y="271" as="targetPoint" />
            <Array as="points">
              <mxPoint x="440" y="397" />
              <mxPoint x="440" y="261" />
            </Array>
          </mxGeometry>
        </mxCell>
        <mxCell id="2iSjbsOjDCWiTXiTnKlb-28" value="inbo-dev" style="sketch=0;outlineConnect=0;fontColor=#232F3E;gradientColor=none;fillColor=#232F3D;strokeColor=none;dashed=0;verticalLabelPosition=bottom;verticalAlign=top;align=center;html=1;fontSize=12;fontStyle=0;aspect=fixed;pointerEvents=1;shape=mxgraph.aws4.folder;" vertex="1" parent="1">
          <mxGeometry x="650" y="70.5" width="33.51" height="30.5" as="geometry" />
        </mxCell>
        <mxCell id="2iSjbsOjDCWiTXiTnKlb-29" value="" style="endArrow=classic;html=1;rounded=0;exitX=1;exitY=0.5;exitDx=0;exitDy=0;edgeStyle=orthogonalEdgeStyle;entryX=0;entryY=0.5;entryDx=0;entryDy=0;" edge="1" parent="1" source="2iSjbsOjDCWiTXiTnKlb-16" target="2iSjbsOjDCWiTXiTnKlb-15">
          <mxGeometry width="50" height="50" relative="1" as="geometry">
            <mxPoint x="418" y="407" as="sourcePoint" />
            <mxPoint x="500" y="271" as="targetPoint" />
            <Array as="points">
              <mxPoint x="630" y="261" />
              <mxPoint x="630" y="261" />
            </Array>
          </mxGeometry>
        </mxCell>
        <mxCell id="2iSjbsOjDCWiTXiTnKlb-32" value="Plan&lt;br&gt;+ Update PR" style="shape=parallelogram;perimeter=parallelogramPerimeter;whiteSpace=wrap;html=1;fixedSize=1;" vertex="1" parent="1">
          <mxGeometry x="900" y="230" width="120" height="60.5" as="geometry" />
        </mxCell>
        <mxCell id="2iSjbsOjDCWiTXiTnKlb-37" value="" style="endArrow=classic;html=1;rounded=0;exitX=1;exitY=0.5;exitDx=0;exitDy=0;edgeStyle=orthogonalEdgeStyle;entryX=0;entryY=0.5;entryDx=0;entryDy=0;" edge="1" parent="1" source="2iSjbsOjDCWiTXiTnKlb-15" target="2iSjbsOjDCWiTXiTnKlb-32">
          <mxGeometry width="50" height="50" relative="1" as="geometry">
            <mxPoint x="600" y="271" as="sourcePoint" />
            <mxPoint x="640" y="271" as="targetPoint" />
            <Array as="points">
              <mxPoint x="910" y="260" />
            </Array>
          </mxGeometry>
        </mxCell>
        <mxCell id="2iSjbsOjDCWiTXiTnKlb-38" value="Plan&lt;br&gt;+ Deploy" style="shape=parallelogram;perimeter=parallelogramPerimeter;whiteSpace=wrap;html=1;fixedSize=1;" vertex="1" parent="1">
          <mxGeometry x="1110" y="230" width="120" height="60.5" as="geometry" />
        </mxCell>
        <mxCell id="2iSjbsOjDCWiTXiTnKlb-39" value="" style="endArrow=classic;html=1;rounded=0;edgeStyle=orthogonalEdgeStyle;entryX=0;entryY=0.5;entryDx=0;entryDy=0;" edge="1" parent="1" target="2iSjbsOjDCWiTXiTnKlb-38">
          <mxGeometry width="50" height="50" relative="1" as="geometry">
            <mxPoint x="1000" y="260.87" as="sourcePoint" />
            <mxPoint x="1120" y="260" as="targetPoint" />
            <Array as="points">
              <mxPoint x="1070" y="261" />
            </Array>
          </mxGeometry>
        </mxCell>
        <mxCell id="2iSjbsOjDCWiTXiTnKlb-41" value="Approve" style="edgeStyle=orthogonalEdgeStyle;rounded=0;orthogonalLoop=1;jettySize=auto;html=1;" edge="1" parent="1" source="2iSjbsOjDCWiTXiTnKlb-40">
          <mxGeometry relative="1" as="geometry">
            <mxPoint x="1075" y="261" as="targetPoint" />
          </mxGeometry>
        </mxCell>
        <mxCell id="2iSjbsOjDCWiTXiTnKlb-40" value="" style="shape=umlActor;verticalLabelPosition=bottom;verticalAlign=top;html=1;outlineConnect=0;" vertex="1" parent="1">
          <mxGeometry x="1060" y="150" width="30" height="60" as="geometry" />
        </mxCell>
      </root>
    </mxGraphModel>
  </diagram>
</mxfile>
